<svg preserveAspectRatio="none" overflow="visible" style="display: block;" width="161.846" height="21.5385" viewBox="0 0 161.846 21.5385" fill="none" xmlns="http://www.w3.org/2000/svg">
<g id="logo/marshmallow" clip-path="url(#clip0_0_355)">
<path id="vector" d="M3.98701 8.36026C3.98701 7.51406 3.33574 6.81574 2.52564 6.81574H1.58051C0.70686 6.81574 0 7.54692 0 8.45063V19.3937C0 20.2564 0.675091 20.9547 1.50903 20.9547H2.6686C3.50253 20.9547 4.17762 20.2564 4.17762 19.3937V12.8131C4.17762 11.5315 4.97185 10.3649 6.43322 10.3649C7.8946 10.3649 8.63322 11.4164 8.63322 12.7556V19.3855C8.63322 20.2481 9.30832 20.9465 10.1423 20.9465H11.2542C12.0881 20.9465 12.7632 20.2481 12.7632 19.3855V12.7884C12.7632 11.5397 13.5574 10.3731 15.0426 10.3731C16.5278 10.3731 17.2188 11.4247 17.2188 12.7638V19.3937C17.2188 20.2564 17.8939 20.9547 18.7278 20.9547H19.7524C20.5863 20.9547 21.2614 20.2564 21.2614 19.3937V11.7944C21.2614 7.94948 18.8946 6.38853 16.3134 6.38853C14.6455 6.38853 12.4852 7.68659 12.2549 9.82263C12.239 9.93764 12.1437 10.0198 12.0325 10.0198C11.9213 10.0198 11.834 9.93764 11.8101 9.82263C11.5163 8.03985 9.78485 6.38853 7.92636 6.38853C6.48882 6.38853 4.61445 7.0622 4.0426 9.76512C4.02672 9.83906 4.01084 9.89657 3.97112 9.94586C3.78845 10.1348 3.49459 9.93764 3.60578 9.68296C3.60578 9.68296 3.99495 8.84498 3.99495 8.36848L3.98701 8.36026ZM55.6513 12.1723L53.8405 11.8026C53.2369 11.6876 52.7683 11.3507 52.7683 10.751C52.7683 10.0116 53.4593 9.52687 54.2535 9.52687C55.1669 9.52687 55.7228 9.94586 56.0008 10.5292C56.2073 10.9564 56.6759 11.1782 57.1365 11.0878L58.5344 10.8249C59.2174 10.6935 59.6145 9.94586 59.3286 9.29683C58.7091 7.86733 57.1921 6.40496 54.1979 6.40496C51.2037 6.40496 48.9481 8.50814 48.9481 11.096C48.9481 13.0842 50.0997 14.793 53.0225 15.4503L54.5871 15.82C55.6037 16.05 55.9373 16.4772 55.9373 16.9866C55.9373 17.611 55.4131 18.2107 54.3409 18.2107C53.2687 18.2107 52.6889 17.7342 52.395 17.1016C52.1806 16.6497 51.712 16.3868 51.2354 16.4772L49.782 16.7483C49.1069 16.8716 48.7019 17.6192 48.9798 18.2764C49.6073 19.7552 51.1799 21.3983 54.4282 21.3983C58.0896 21.3983 59.8766 19.0405 59.8766 16.6169C59.8766 14.5383 58.5026 12.7802 55.6672 12.1805H55.6513V12.1723ZM133.16 6.38853C129.085 6.38853 125.901 9.494 125.901 13.8729C125.901 18.2518 129.093 21.3819 133.16 21.3819C137.226 21.3819 140.419 18.2518 140.419 13.8729C140.419 9.494 137.258 6.38853 133.16 6.38853ZM133.16 17.3974C131.595 17.3974 130.078 16.2307 130.078 13.8729C130.078 11.515 131.587 10.3731 133.16 10.3731C134.732 10.3731 136.241 11.4822 136.241 13.8729C136.241 16.2636 134.756 17.3974 133.16 17.3974ZM117.521 20.9383H115.75C115.083 20.9383 114.535 20.3796 114.535 19.6895V1.60709C114.535 0.91698 115.075 0.358323 115.75 0.358323H117.521C118.189 0.358323 118.737 0.91698 118.737 1.60709V19.6977C118.737 20.3878 118.197 20.9465 117.521 20.9465V20.9383ZM47.0975 6.65143C45.6123 6.46247 43.8809 7.05399 43.2376 9.76512C43.2217 9.83906 43.2058 9.89657 43.1661 9.94586C43.0152 10.102 42.6896 9.93764 42.8008 9.68296C42.8008 9.68296 43.19 8.84498 43.1979 8.36848C43.1979 7.52227 42.5466 6.82395 41.7365 6.82395H40.7914C39.9177 6.82395 39.2109 7.55514 39.2109 8.45885V19.4019C39.2109 20.2646 39.886 20.9629 40.7199 20.9629H41.8795C42.7134 20.9629 43.3885 20.2646 43.3885 19.4019V13.8318C43.3885 12.5502 43.2535 11.17 45.5965 11.3836C45.5965 11.3836 48.0347 11.6793 48.0347 9.87192V8.17952C48.0347 7.46477 47.8362 6.75823 47.0975 6.66786V6.65143ZM123.438 20.9547H121.667C121 20.9547 120.452 20.396 120.452 19.7059V1.60709C120.452 0.91698 120.992 0.358323 121.667 0.358323H123.438C124.106 0.358323 124.646 0.91698 124.646 1.60709V19.6977C124.646 20.3878 124.106 20.9465 123.438 20.9465V20.9547ZM36.0896 6.80752H35.1445C34.3264 6.80752 33.6751 7.51406 33.6831 8.36026C33.6831 8.83676 34.0802 9.67475 34.0802 9.67475C34.1834 9.92121 33.8896 10.1266 33.7148 9.93764C33.6672 9.88013 33.6354 9.81441 33.6037 9.74869C33.6037 9.74869 32.4123 6.38853 28.9733 6.38853C25.3596 6.38853 22.4607 8.76282 22.4607 13.725C22.4607 18.6872 25.1849 21.3819 28.878 21.3819C31.8484 21.3819 32.9921 18.8433 33.0874 18.6461C33.1827 18.4407 33.2304 18.2682 33.3416 18.2107C33.4686 18.145 33.7784 18.2025 33.6434 18.6297L33.3733 19.5498C33.2065 20.3796 33.4766 20.9629 34.3105 20.9629H36.1769C37.0109 20.9629 37.686 20.2646 37.686 19.4019V8.4342C37.686 7.53049 36.9791 6.79931 36.1055 6.79931H36.0896V6.80752ZM29.7755 17.6849C27.9488 17.6849 26.4715 16.1897 26.4715 13.725C26.4715 11.2603 27.8932 9.79798 29.7755 9.79798C31.6578 9.79798 33.0477 11.1453 33.0477 13.725C33.0477 16.3047 31.5387 17.6849 29.7755 17.6849ZM111.509 6.80752H110.564C109.746 6.80752 109.103 7.51406 109.103 8.36026C109.103 8.83676 109.5 9.67475 109.5 9.67475C109.603 9.92121 109.309 10.1266 109.134 9.93764C109.087 9.88013 109.055 9.81441 109.023 9.74869C109.023 9.74869 107.832 6.38853 104.393 6.38853C100.779 6.38853 97.8803 8.76282 97.8803 13.725C97.8803 18.6872 100.604 21.3819 104.298 21.3819C107.268 21.3819 108.412 18.8433 108.507 18.6461C108.602 18.4407 108.65 18.2682 108.761 18.2107C108.888 18.145 109.198 18.2025 109.063 18.6297L108.793 19.5498C108.626 20.3796 108.896 20.9629 109.722 20.9629H111.589C112.423 20.9629 113.098 20.2646 113.098 19.4019V8.4342C113.098 7.53049 112.391 6.79931 111.517 6.79931H111.509V6.80752ZM105.195 17.6849C103.368 17.6849 101.891 16.1897 101.891 13.725C101.891 11.2603 103.313 9.79798 105.195 9.79798C107.077 9.79798 108.467 11.1453 108.467 13.725C108.467 16.3047 106.958 17.6849 105.195 17.6849ZM79.1842 8.36848C79.1842 7.52227 78.533 6.82395 77.7229 6.82395H76.7777C75.9041 6.82395 75.1972 7.55514 75.1972 8.45885V19.4019C75.1972 20.2646 75.8723 20.9629 76.7062 20.9629H77.8658C78.6997 20.9629 79.3748 20.2646 79.3748 19.4019V12.8131C79.3748 11.5315 80.1691 10.3649 81.6304 10.3649C83.0918 10.3649 83.8304 11.4164 83.8304 12.7556V19.3855C83.8304 20.2481 84.5055 20.9465 85.3395 20.9465H86.4514C87.2853 20.9465 87.9604 20.2481 87.9604 19.3855V12.7884C87.9604 11.5397 88.7546 10.3731 90.2398 10.3731C91.725 10.3731 92.416 11.4247 92.416 12.7638V19.3937C92.416 20.2564 93.0911 20.9547 93.925 20.9547H94.9496C95.7835 20.9547 96.4586 20.2564 96.4586 19.3937V11.7944C96.4586 7.94948 94.0918 6.38853 91.5106 6.38853C89.8427 6.38853 87.6824 7.68659 87.4521 9.82263C87.4362 9.93764 87.3409 10.0198 87.2297 10.0198C87.1185 10.0198 87.0312 9.93764 87.0073 9.82263C86.7135 8.03985 84.9821 6.38853 83.1236 6.38853C81.686 6.38853 79.8117 7.0622 79.2398 9.76512C79.2239 9.83906 79.208 9.89657 79.1683 9.94586C78.9857 10.1348 78.6918 9.93764 78.803 9.68296C78.803 9.68296 79.1922 8.84498 79.1922 8.36848H79.1842ZM65.1741 19.3444C65.1741 20.2317 64.4752 20.9547 63.6174 20.9547H62.5532C61.6954 20.9547 60.9965 20.2317 60.9965 19.3444V1.96857C60.9965 1.07308 61.6954 0.358323 62.5532 0.358323H63.9907C63.9907 0.358323 65.5077 0.358323 65.5474 1.985C65.5871 3.58703 65.4124 5.42731 65.2535 6.38853C65.0788 7.49763 65.0073 8.10558 64.4514 9.31326C64.3481 9.5433 64.642 9.71582 64.7849 9.61724C64.8485 9.56794 64.8643 9.51044 64.8961 9.39542C65.5712 7.09507 67.0326 6.38853 68.6846 6.38853C72.195 6.38853 73.8311 8.98464 73.8311 12.0819V19.3444C73.8311 20.2317 73.1322 20.9547 72.2745 20.9547H71.2102C70.3524 20.9547 69.6535 20.2317 69.6535 19.3444V12.8213C69.6535 11.4247 68.9387 10.3731 67.4217 10.3731C66.1033 10.3731 65.1662 11.1207 65.1662 12.6159V19.3444H65.1741ZM160.433 6.81574H159.488C159.488 6.81574 158.178 6.80752 157.407 8.31918C156.677 9.77333 156.454 10.6524 156.24 11.6547C156.065 12.468 155.732 14.144 156.089 16.1157C156.129 16.3458 155.755 16.4361 155.66 16.2554C155.636 16.1979 155.605 15.9843 155.589 15.9103C155.477 15.2038 155.144 13.2074 154.779 11.63C154.413 10.0691 153.953 7.83446 152.205 7.3251C151.776 7.19365 150.696 7.14436 150.085 7.3251C148.337 7.82625 147.877 10.0691 147.511 11.63C147.146 13.2074 146.812 15.2038 146.701 15.9103C146.685 15.9843 146.654 16.1979 146.63 16.2554C146.534 16.4444 146.161 16.354 146.209 16.1157C146.566 14.1522 146.233 12.468 146.058 11.6547C145.844 10.6524 145.629 9.77333 144.89 8.31918C144.128 6.79931 142.81 6.81574 142.81 6.81574H141.864C140.903 6.81574 140.212 7.77696 140.498 8.72996L143.802 19.9195C143.985 20.5357 144.533 20.9465 145.153 20.9465H146.717C147.932 20.9465 148.298 20.8232 148.941 19.3937C149.775 17.5452 150.863 12.7884 150.903 12.6077C150.95 12.3941 151.038 12.3612 151.141 12.3612C151.244 12.3612 151.332 12.3941 151.379 12.6077C151.419 12.7802 152.507 17.5452 153.341 19.3937C153.984 20.8232 154.35 20.9465 155.565 20.9465H157.129C157.749 20.9465 158.297 20.5275 158.48 19.9195L161.784 8.72996C162.062 7.77696 161.379 6.81574 160.418 6.81574H160.433Z" fill="currentColor"/>
</g>
<defs>
<clipPath id="clip0_0_355">
<rect width="161.846" height="21.5385" fill="white"/>
</clipPath>
</defs>
</svg>
